<svg data-logo="logo" xmlns="http://www.w3.org/2000/svg" viewBox="0 0 199 43">
        <g style="opacity: 1;" id="logogram" transform="translate(0, 1) rotate(0)"><path fill-rule="evenodd" clip-rule="evenodd" d="M20.9053 40.0799C31.951 40.0799 40.9053 31.1256 40.9053 20.0799C40.9053 9.03427 31.951 0.0799561 20.9053 0.0799561C9.85956 0.0799561 0.905273 9.03427 0.905273 20.0799C0.905273 31.1256 9.85956 40.0799 20.9053 40.0799ZM27.1446 9.3968C27.4483 8.31801 26.4014 7.68008 25.4453 8.36125L12.0984 17.8695C11.0615 18.6082 11.2246 20.0799 12.3434 20.0799H15.858V20.0527H22.7078L17.1265 22.022L14.666 30.7631C14.3623 31.8419 15.4091 32.4798 16.3653 31.7986L29.7122 22.2904C30.7491 21.5517 30.5859 20.0799 29.4672 20.0799H24.1374L27.1446 9.3968Z" fill="#F15757"></path></g>
        <g style="opacity: 1;" id="logotype" transform="translate(47, 8.5)"><path fill="#000000" d="M18.29 26L13.39 26L13.39 16.16L5.09 1.50L10.48 1.50L14.33 8.53Q14.79 9.38 15.26 10.28Q15.73 11.19 15.98 12.10L15.98 12.10Q16.22 11.19 16.66 10.30Q17.09 9.41 17.55 8.53L17.55 8.53L21.23 1.50L26.58 1.50L18.29 16.27L18.29 26ZM36.94 26L32.18 26L24.59 7.80L30.19 7.80L33.83 18.20Q34.32 19.59 34.60 21.10L34.60 21.10Q34.88 19.59 35.37 18.20L35.37 18.20L39.01 7.80L44.50 7.80L36.94 26ZM52.94 26.45L52.94 26.45Q50.14 26.45 48.00 25.16Q45.87 23.86 44.69 21.71Q43.52 19.56 43.52 16.93L43.52 16.93Q43.52 14.31 44.75 12.12Q45.97 9.93 48.09 8.64Q50.21 7.34 52.94 7.34L52.94 7.34Q55.67 7.34 57.75 8.64Q59.83 9.93 61.00 12.12Q62.18 14.31 62.18 16.93L62.18 16.93Q62.18 17.32 62.14 17.74Q62.11 18.16 62.04 18.61L62.04 18.61L48.42 18.61Q48.81 20.23 49.98 21.24Q51.15 22.25 52.94 22.25L52.94 22.25Q54.48 22.25 55.61 21.55Q56.75 20.86 57.38 19.80L57.38 19.80L61.06 22.57Q59.97 24.29 57.80 25.37Q55.63 26.45 52.94 26.45ZM52.87 11.40L52.87 11.40Q51.19 11.40 50.00 12.42Q48.81 13.43 48.42 15.08L48.42 15.08L57.42 15.08Q57.03 13.57 55.82 12.49Q54.62 11.40 52.87 11.40ZM76.49 26.45L76.49 26.45Q73.76 26.45 71.43 25.48Q69.11 24.50 67.37 22.75Q65.64 20.99 64.68 18.70Q63.72 16.41 63.72 13.78L63.72 13.78Q63.72 11.16 64.64 8.85Q65.57 6.54 67.27 4.79Q68.97 3.04 71.31 2.04Q73.66 1.04 76.49 1.04L76.49 1.04Q79.50 1.04 81.65 1.99Q83.81 2.93 85.45 4.89L85.45 4.89L81.99 7.90Q79.78 5.59 76.49 5.59L76.49 5.59Q74.15 5.59 72.41 6.71Q70.68 7.83 69.74 9.69Q68.79 11.54 68.79 13.78L68.79 13.78Q68.79 16.02 69.74 17.86Q70.68 19.70 72.43 20.80Q74.18 21.91 76.60 21.91L76.60 21.91Q78.38 21.91 79.75 21.31Q81.11 20.71 82.20 19.52L82.20 19.52L85.77 22.57Q84.37 24.25 82.04 25.35Q79.71 26.45 76.49 26.45ZM92.14 26L87.41 26L87.41 0.45L92.14 0.45L92.14 10.32Q93.61 7.38 97.63 7.38L97.63 7.38Q99.59 7.38 101.17 8.29Q102.74 9.20 103.65 10.88Q104.56 12.56 104.56 14.87L104.56 14.87L104.56 26L99.84 26L99.84 16.02Q99.84 13.64 98.75 12.58Q97.67 11.51 95.92 11.51L95.92 11.51Q94.41 11.51 93.27 12.58Q92.14 13.64 92.14 16.02L92.14 16.02L92.14 26ZM115.48 26.45L115.48 26.45Q113.00 26.45 110.95 25.18Q108.90 23.90 107.69 21.75Q106.49 19.59 106.49 16.97L106.49 16.97Q106.49 15.01 107.19 13.28Q107.89 11.54 109.11 10.23Q110.34 8.92 111.96 8.17Q113.59 7.41 115.48 7.41L115.48 7.41Q117.86 7.41 119.19 8.31Q120.52 9.20 121.26 10.67L121.26 10.67L121.26 7.80L125.95 7.80L125.95 26L121.36 26L121.36 23.02Q120.63 24.57 119.28 25.51Q117.93 26.45 115.48 26.45ZM116.25 22.18L116.25 22.18Q117.83 22.18 118.96 21.47Q120.10 20.75 120.73 19.56Q121.36 18.37 121.36 16.97L121.36 16.97Q121.36 15.53 120.73 14.34Q120.10 13.15 118.96 12.42Q117.83 11.68 116.25 11.68L116.25 11.68Q114.75 11.68 113.61 12.40Q112.47 13.12 111.84 14.31Q111.21 15.50 111.21 16.93L111.21 16.93Q111.21 18.30 111.84 19.51Q112.47 20.71 113.61 21.45Q114.75 22.18 116.25 22.18ZM133.47 26L128.75 26L128.75 7.80L133.33 7.80L133.33 11.26Q133.79 9.30 135.19 8.27Q136.59 7.24 138.97 7.38L138.97 7.38L138.97 11.82L138.30 11.82Q136.27 11.82 134.87 13.12Q133.47 14.41 133.47 16.69L133.47 16.69L133.47 26ZM150.45 26L147.86 26Q145.16 26 143.73 24.67Q142.29 23.34 142.29 20.36L142.29 20.36L142.29 11.82L139.74 11.82L139.74 7.80L142.29 7.80L142.29 4.12L147.02 3.63L147.02 7.80L150.87 7.80L150.87 11.82L147.02 11.82L147.02 20.12Q147.02 21.80 148.49 21.80L148.49 21.80L150.45 21.80L150.45 26Z"></path></g>
        
      </svg>